<svg width="129" height="129" viewBox="0 0 129 129" fill="none" xmlns="http://www.w3.org/2000/svg">
<path d="M111.015 50.5324C110.125 25.838 89.869 5.86997 65.165 5.31957C38.7458 4.73077 17.1426 25.9724 17.1426 52.2604C17.1426 60.2188 19.1298 67.7132 22.6242 74.2796L22.605 74.2668C22.6562 74.3596 22.7042 74.4428 22.7554 74.5324C22.8866 74.7756 23.0274 75.0124 23.165 75.2556C23.3058 75.5052 23.4498 75.7548 23.5906 75.9948C23.8178 76.3852 24.0514 76.7692 24.2914 77.15C24.429 77.3676 24.5634 77.5756 24.701 77.7868C24.877 78.0588 25.0498 78.334 25.229 78.6028C31.8786 88.5036 37.533 89.214 39.5362 96.7692H59.8562V74.1708L49.0114 63.326C47.2578 61.5724 47.2578 58.7308 49.0114 56.9772C50.765 55.2236 53.6066 55.2236 55.3602 56.9772L64.1634 65.7804L72.8258 57.118C74.5794 55.3644 77.421 55.3644 79.1746 57.118C80.9282 58.8716 80.9282 61.7132 79.1746 63.4668L68.3298 74.3116V96.766H88.6498C90.6594 89.182 96.3458 88.494 103.024 78.5068C103.031 78.5004 103.034 78.4908 103.04 78.4844C103.36 78.0076 103.68 77.5052 104.003 76.9836C104.17 76.7148 104.333 76.446 104.493 76.174C104.858 75.5628 105.223 74.9356 105.587 74.2636L105.559 74.2796C109.306 67.2364 111.322 59.1308 111.011 50.5292L111.015 50.5324Z" fill="#FFC33A"/>
<path d="M68.3294 96.772V74.3176L79.1742 63.4728C80.9278 61.7192 80.9278 58.8776 79.1742 57.124C77.4206 55.3704 74.579 55.3704 72.8254 57.124L64.163 65.7864L55.3598 56.9832C53.6062 55.2296 50.7646 55.2296 49.011 56.9832C47.2574 58.7368 47.2574 61.5784 49.011 63.332L59.8558 74.1768V96.7752H68.3326L68.3294 96.772Z" fill="#FF9000"/>
<path d="M39.6255 96.7727C39.6479 97.2783 39.6639 97.8031 39.6703 98.3535V107.566C39.6703 116.478 47.5359 123.704 56.4511 123.704H71.7343C80.6463 123.704 88.6111 116.478 88.6111 107.566V98.7087C88.6111 98.0239 88.6303 97.3871 88.6591 96.7695H39.6287L39.6255 96.7727Z" fill="#7D8996"/>
<path d="M89.2063 97.4922H39.0815V107.092H89.2063V97.4922Z" fill="#4B596A"/>
</svg>
